<?xml version="1.0" encoding="utf-8"?>
<!-- Generator: Adobe Illustrator 23.1.0, SVG Export Plug-In . SVG Version: 6.00 Build 0)  -->
<svg version="1.1" id="Слой_1" xmlns="http://www.w3.org/2000/svg" xmlns:xlink="http://www.w3.org/1999/xlink" x="0px" y="0px"
	 viewBox="0 0 154 98" style="enable-background:new 0 0 154 98;" xml:space="preserve">
<style type="text/css">
	.st0{fill:#2B87D3;}
	.st1{fill:#FFFFFF;}
	.st2{fill:none;}
	.st3{font-family:'MyriadPro-Regular';}
	.st4{font-size:72px;}
</style>
<path class="st0" d="M147.76,98H6.24C2.81,98,0,95.19,0,91.76V6.24C0,2.81,2.81,0,6.24,0h141.53c3.43,0,6.24,2.81,6.24,6.24v85.53
	C154,95.19,151.19,98,147.76,98z"/>
<path class="st1" d="M139.94,85H14.06C11.28,85,9,82.72,9,79.94V17.06C9,14.28,11.28,12,14.06,12h125.88c2.78,0,5.06,2.28,5.06,5.06
	v62.88C145,82.72,142.72,85,139.94,85z"/>
<rect x="15" y="19" class="st2" width="124" height="56"/>
<text transform="matrix(1 0 0 1 15 70.1191)" class="st0 st3 st4">СС</text>
<path class="st0" d="M21.01,10.06l5.97,0.55c-0.29,3.07-2.89,5.45-5.97,5.45c-3.29,0-6-2.71-6-6s2.71-6,6-6
	c2.41,0,4.6,1.45,5.53,3.67L21.01,10.06z"/>
<circle class="st0" cx="140" cy="16" r="6"/>
<circle class="st0" cx="21" cy="87" r="6"/>
<circle class="st0" cx="134" cy="87" r="6"/>
<circle class="st0" cx="141" cy="81" r="6"/>
<circle class="st0" cx="13" cy="81" r="6"/>
<circle class="st0" cx="14" cy="16" r="5"/>
<path class="st0" d="M131.82,9.85l5.97,0.55c-0.29,3.07-2.89,5.45-5.97,5.45c-3.29,0-6-2.71-6-6s2.71-6,6-6
	c2.41,0,4.6,1.45,5.53,3.67L131.82,9.85z"/>
<polygon class="st0" points="115,90.38 104.63,94.17 94.26,90.38 94.26,82.79 104.63,79 115,82.79 "/>
<polygon class="st0" points="68.93,89.09 58.55,92.88 48.18,89.09 48.18,81.51 58.55,77.71 68.93,81.51 "/>
<polygon class="st0" points="114.93,15.09 104.55,18.88 94.18,15.09 94.18,7.51 104.55,3.71 114.93,7.51 "/>
<polygon class="st0" points="68.93,14.09 58.55,17.88 48.18,14.09 48.18,6.51 58.55,2.71 68.93,6.51 "/>
<polygon class="st0" points="141.29,56.99 137.5,46.62 141.29,36.24 148.88,36.24 152.67,46.62 148.88,56.99 "/>
<polygon class="st0" points="3.29,56.99 -0.5,46.62 3.29,36.24 10.88,36.24 14.67,46.62 10.88,56.99 "/>
<circle class="st0" cx="147" cy="73" r="5"/>
<circle class="st0" cx="8" cy="21" r="5"/>
<circle class="st0" cx="7" cy="73" r="5"/>
<circle class="st0" cx="147" cy="23" r="6"/>
</svg>
